<svg width="0" height="0" class="hidden">
    <symbol xmlns="http://www.w3.org/2000/svg" viewBox="0 0 24 24" fill="currentColor" id="faq">
        <path fill-rule="evenodd" clip-rule="evenodd" d="M1 12C1 5.92487 5.92487 1 12 1C18.0751 1 23 5.92487 23 12C23 18.0751 18.0751 23 12 23C5.92487 23 1 18.0751 1 12ZM21 12C21 7.02944 16.9706 3 12 3C7.02944 3 3 7.02944 3 12C3 16.9706 7.02944 21 12 21C16.9706 21 21 16.9706 21 12ZM8.14667 8.66816C8.79391 6.82822 10.6738 5.72336 12.5962 6.05311C14.5186 6.38285 15.9229 8.05103 15.92 10C15.92 11.2797 15.1618 12.2906 13.9747 13.0821C13.3258 13.5147 12.6883 13.798 12.2362 13.9487C11.7123 14.1233 11.146 13.8402 10.9713 13.3162C10.8091 12.8297 11.0417 12.3067 11.4953 12.0946L11.7904 11.9807C11.8462 11.9579 11.9108 11.9306 11.9826 11.8987C12.2857 11.764 12.5884 11.6025 12.8653 11.4179C13.5532 10.9594 13.92 10.4703 13.92 9.99851C13.9215 9.02328 13.2193 8.18919 12.2581 8.02432C11.3503 7.86861 10.4615 8.35271 10.0929 9.18198L10.0333 9.33184C9.85006 9.85283 9.27915 10.1266 8.75816 9.94333C8.23717 9.76006 7.96339 9.18915 8.14667 8.66816ZM13.01 17C13.01 16.4477 12.5623 16 12.01 16L11.8834 16.0067C11.386 16.0645 11 16.4872 11 17C11 17.5523 11.4477 18 12 18L12.1266 17.9933C12.624 17.9355 13.01 17.5128 13.01 17Z" fill="currentColor"/>
        <path fill-rule="evenodd" clip-rule="evenodd" d="M1 12C1 5.92487 5.92487 1 12 1C18.0751 1 23 5.92487 23 12C23 18.0751 18.0751 23 12 23C5.92487 23 1 18.0751 1 12ZM21 12C21 7.02944 16.9706 3 12 3C7.02944 3 3 7.02944 3 12C3 16.9706 7.02944 21 12 21C16.9706 21 21 16.9706 21 12ZM8.14667 8.66816C8.79391 6.82822 10.6738 5.72336 12.5962 6.05311C14.5186 6.38285 15.9229 8.05103 15.92 10C15.92 11.2797 15.1618 12.2906 13.9747 13.0821C13.3258 13.5147 12.6883 13.798 12.2362 13.9487C11.7123 14.1233 11.146 13.8402 10.9713 13.3162C10.8091 12.8297 11.0417 12.3067 11.4953 12.0946L11.7904 11.9807C11.8462 11.9579 11.9108 11.9306 11.9826 11.8987C12.2857 11.764 12.5884 11.6025 12.8653 11.4179C13.5532 10.9594 13.92 10.4703 13.92 9.99851C13.9215 9.02328 13.2193 8.18919 12.2581 8.02432C11.3503 7.86861 10.4615 8.35271 10.0929 9.18198L10.0333 9.33184C9.85006 9.85283 9.27915 10.1266 8.75816 9.94333C8.23717 9.76006 7.96339 9.18915 8.14667 8.66816ZM13.01 17C13.01 16.4477 12.5623 16 12.01 16L11.8834 16.0067C11.386 16.0645 11 16.4872 11 17C11 17.5523 11.4477 18 12 18L12.1266 17.9933C12.624 17.9355 13.01 17.5128 13.01 17Z" fill="currentColor"/>
    </symbol>

    <symbol xmlns="http://www.w3.org/2000/svg" viewBox="0 0 24 24" fill="currentColor" id="gather">
        <path fill-rule="evenodd" clip-rule="evenodd" d="M2 5C2 2.49324 6.47973 1 12 1L12.3235 1.00172C17.6942 1.05895 22 2.5424 22 5V12V19C22 21.5118 17.5423 23 12 23C6.56633 23 2.17523 21.5696 2.00512 19.1466L2 19V12V5ZM4 7.5277V12C4 12.8128 7.55616 14 12 14C16.4438 14 20 12.8128 20 12V7.5277C18.1751 8.47599 15.2701 9 12 9C8.72988 9 5.8249 8.47599 4 7.5277ZM20 14.5333C18.1788 15.479 15.2793 16 12 16C8.72072 16 5.82116 15.479 4 14.5333V19C4 19.8128 7.55616 21 12 21C16.3405 21 19.8341 19.8674 19.9943 19.0573L20 19V14.5333ZM20 5C20 4.19305 16.4209 3 12 3L11.693 3.00192C7.4146 3.05528 4 4.21181 4 5C4 5.80695 7.57914 7 12 7C16.4209 7 20 5.80695 20 5Z" fill="currentColor"/>
        <path fill-rule="evenodd" clip-rule="evenodd" d="M2 5C2 2.49324 6.47973 1 12 1L12.3235 1.00172C17.6942 1.05895 22 2.5424 22 5V12V19C22 21.5118 17.5423 23 12 23C6.56633 23 2.17523 21.5696 2.00512 19.1466L2 19V12V5ZM4 7.5277V12C4 12.8128 7.55616 14 12 14C16.4438 14 20 12.8128 20 12V7.5277C18.1751 8.47599 15.2701 9 12 9C8.72988 9 5.8249 8.47599 4 7.5277ZM20 14.5333C18.1788 15.479 15.2793 16 12 16C8.72072 16 5.82116 15.479 4 14.5333V19C4 19.8128 7.55616 21 12 21C16.3405 21 19.8341 19.8674 19.9943 19.0573L20 19V14.5333ZM20 5C20 4.19305 16.4209 3 12 3L11.693 3.00192C7.4146 3.05528 4 4.21181 4 5C4 5.80695 7.57914 7 12 7C16.4209 7 20 5.80695 20 5Z" fill="currentColor"/>
    </symbol>

    <symbol xmlns="http://www.w3.org/2000/svg" viewBox="0 0 24 24" stroke="currentColor" fill="none" id="governance">
        <path fill-rule="evenodd" clip-rule="evenodd" d="M1.71424 17.7774C1.32 17.3896 1.31546 16.7554 1.70409 16.3619L2.93625 15.1144C3.32616 14.7196 3.96293 14.7178 4.35512 15.1103L7.88606 18.6442C8.26829 19.0267 8.27716 19.6438 7.90608 20.0372L6.73197 21.2818C6.34736 21.6895 5.70279 21.7015 5.30324 21.3084L1.71424 17.7774Z" stroke="currentColor" stroke-width="2"/>
        <circle cx="13.8168" cy="5.35417" r="3.66667" stroke="currentColor" stroke-width="2"/>
        <path d="M4.11987 14.8928C4.11987 14.8928 5.22291 12.7014 6.89759 12.0713C8.57227 11.4412 11.0844 12.2723 11.0844 12.2723H16.3025C16.3025 12.2723 17.5227 12.3066 17.5227 13.5826C17.5227 14.8586 16.3025 14.8928 16.3025 14.8928H12.4494" stroke="currentColor" stroke-width="2" stroke-linecap="round"/>
        <path d="M8.13721 18.9314L9.60653 17.6241H16.5723C16.5723 17.6241 17.1589 17.6159 17.6235 17.4097C18.0881 17.2036 18.445 16.7934 18.445 16.7934L22.7614 11.503C22.7614 11.503 23.1044 10.3733 22.4002 9.80134C21.696 9.22942 20.666 9.80134 20.666 9.80134L17.5227 13.3464" stroke="currentColor" stroke-width="2"/>
    </symbol>

    <symbol xmlns="http://www.w3.org/2000/svg" viewBox="0 0 15 22" fill="currentColor" id="gather-dash">
        <path fill-rule="evenodd" clip-rule="evenodd" d="M0 7.33263C0 3.28293 3.28293 0 7.33263 0C11.3823 0 14.6653 3.28293 14.6653 7.33263C14.6653 9.70615 13.5375 11.8163 11.7887 13.1564L12.8241 20.9606C12.9207 21.6883 12.1719 22.2145 11.5306 21.9133L11.4439 21.8671L7.33259 19.4001L3.22127 21.8671C2.59169 22.2448 1.81129 21.7666 1.83306 21.0584L1.84109 20.9604L2.87753 13.1572C1.12813 11.817 0 9.70658 0 7.33263ZM4.59647 14.1377L3.90825 19.3167L6.86101 17.5454C7.11499 17.393 7.42437 17.374 7.69221 17.4883L7.80416 17.5454L10.756 19.3167L10.0695 14.1375C9.22382 14.4779 8.30011 14.6653 7.33263 14.6653C6.36541 14.6653 5.44193 14.478 4.59647 14.1377ZM10.3856 11.9074C10.3331 11.9345 10.2837 11.9665 10.238 12.0027C9.39494 12.5283 8.39919 12.832 7.33252 12.832C4.29524 12.832 1.83305 10.3698 1.83305 7.33252C1.83305 4.29524 4.29524 1.83305 7.33252 1.83305C10.3698 1.83305 12.832 4.29524 12.832 7.33252C12.832 9.2402 11.8607 10.921 10.3856 11.9074ZM3.66652 7.33241C3.66652 5.30756 5.30799 3.66609 7.33284 3.66609C9.35769 3.66609 10.9992 5.30756 10.9992 7.33241C10.9992 9.35726 9.35769 10.9987 7.33284 10.9987C5.30799 10.9987 3.66652 9.35726 3.66652 7.33241ZM9.16542 7.33238C9.16542 6.31995 8.34468 5.49922 7.33226 5.49922C6.31983 5.49922 5.4991 6.31995 5.4991 7.33238C5.4991 8.3448 6.31983 9.16553 7.33226 9.16553C8.34468 9.16553 9.16542 8.3448 9.16542 7.33238Z" fill="currentColor"/>
        <path fill-rule="evenodd" clip-rule="evenodd" d="M0 7.33263C0 3.28293 3.28293 0 7.33263 0C11.3823 0 14.6653 3.28293 14.6653 7.33263C14.6653 9.70615 13.5375 11.8163 11.7887 13.1564L12.8241 20.9606C12.9207 21.6883 12.1719 22.2145 11.5306 21.9133L11.4439 21.8671L7.33259 19.4001L3.22127 21.8671C2.59169 22.2448 1.81129 21.7666 1.83306 21.0584L1.84109 20.9604L2.87753 13.1572C1.12813 11.817 0 9.70658 0 7.33263ZM4.59647 14.1377L3.90825 19.3167L6.86101 17.5454C7.11499 17.393 7.42437 17.374 7.69221 17.4883L7.80416 17.5454L10.756 19.3167L10.0695 14.1375C9.22382 14.4779 8.30011 14.6653 7.33263 14.6653C6.36541 14.6653 5.44193 14.478 4.59647 14.1377ZM10.3856 11.9074C10.3331 11.9345 10.2837 11.9665 10.238 12.0027C9.39494 12.5283 8.39919 12.832 7.33252 12.832C4.29524 12.832 1.83305 10.3698 1.83305 7.33252C1.83305 4.29524 4.29524 1.83305 7.33252 1.83305C10.3698 1.83305 12.832 4.29524 12.832 7.33252C12.832 9.2402 11.8607 10.921 10.3856 11.9074ZM3.66652 7.33241C3.66652 5.30756 5.30799 3.66609 7.33284 3.66609C9.35769 3.66609 10.9992 5.30756 10.9992 7.33241C10.9992 9.35726 9.35769 10.9987 7.33284 10.9987C5.30799 10.9987 3.66652 9.35726 3.66652 7.33241ZM9.16542 7.33238C9.16542 6.31995 8.34468 5.49922 7.33226 5.49922C6.31983 5.49922 5.4991 6.31995 5.4991 7.33238C5.4991 8.3448 6.31983 9.16553 7.33226 9.16553C8.34468 9.16553 9.16542 8.3448 9.16542 7.33238Z" fill="currentColor"/>
    </symbol>

    <symbol xmlns="http://www.w3.org/2000/svg" viewBox="0 0 24 24" fill="currentColor" id="gather-safe">
        <path fill-rule="evenodd" clip-rule="evenodd" d="M11 1L2 5V11C2 16.55 5.84 21.74 11 23C16.16 21.74 20 16.55 20 11V5L11 1ZM18.0002 10.9997C18.0002 15.5197 15.0202 19.6897 11.0002 20.9297C6.9802 19.6897 4.0002 15.5197 4.0002 10.9997V6.29969L11.0002 3.18969L18.0002 6.29969V10.9997ZM5.00008 13.0002L6.41008 11.5902L9.00008 14.1702L15.5901 7.58023L17.0001 9.00023L9.00008 17.0002L5.00008 13.0002Z" fill="currentColor"/>
        <path fill-rule="evenodd" clip-rule="evenodd" d="M11 1L2 5V11C2 16.55 5.84 21.74 11 23C16.16 21.74 20 16.55 20 11V5L11 1ZM18.0002 10.9997C18.0002 15.5197 15.0202 19.6897 11.0002 20.9297C6.9802 19.6897 4.0002 15.5197 4.0002 10.9997V6.29969L11.0002 3.18969L18.0002 6.29969V10.9997ZM5.00008 13.0002L6.41008 11.5902L9.00008 14.1702L15.5901 7.58023L17.0001 9.00023L9.00008 17.0002L5.00008 13.0002Z" fill="currentColor"/>
    </symbol>

    <symbol xmlns="http://www.w3.org/2000/svg" viewBox="0 0 22 22" fill="none" id="gather-starter">
        <path fill-rule="evenodd" clip-rule="evenodd" d="M7.10585 3.894L9.05285 5.83L10.9998 3.894L12.9468 5.83L14.8938 3.894L10.9998 0L7.10585 3.894ZM3.894 7.10585L0 10.9998L3.894 14.8938L5.83 12.9468L3.894 10.9998L5.83 9.05285L3.894 7.10585ZM10.9998 18.1063L9.05285 16.1703L7.10585 18.1063L10.9998 22.0003L14.8938 18.1063L12.9468 16.1703L10.9998 18.1063ZM16.1699 9.05285L18.1059 7.10585L21.9999 10.9998L18.1059 14.8938L16.1699 12.9468L18.1059 10.9998L16.1699 9.05285ZM11.0001 14.3001C12.8226 14.3001 14.3001 12.8226 14.3001 11.0001C14.3001 9.17756 12.8226 7.7001 11.0001 7.7001C9.17756 7.7001 7.7001 9.17756 7.7001 11.0001C7.7001 12.8226 9.17756 14.3001 11.0001 14.3001Z" fill="currentColor"/>
    </symbol>

    <symbol xmlns="http://www.w3.org/2000/svg" viewBox="0 0 22 12" fill="currentColor" id="gather-tracker">
        <path d="M22 2C22 3.1 21.1 4 20 4C19.82 4 19.65 3.98 19.49 3.93L15.93 7.48C15.98 7.64 16 7.82 16 8C16 9.1 15.1 10 14 10C12.9 10 12 9.1 12 8C12 7.82 12.02 7.64 12.07 7.48L9.52 4.93C9.36 4.98 9.18 5 9 5C8.82 5 8.64 4.98 8.48 4.93L3.93 9.49C3.98 9.65 4 9.82 4 10C4 11.1 3.1 12 2 12C0.9 12 0 11.1 0 10C0 8.9 0.9 8 2 8C2.18 8 2.35 8.02 2.51 8.07L7.07 3.52C7.02 3.36 7 3.18 7 3C7 1.9 7.9 1 9 1C10.1 1 11 1.9 11 3C11 3.18 10.98 3.36 10.93 3.52L13.48 6.07C13.64 6.02 13.82 6 14 6C14.18 6 14.36 6.02 14.52 6.07L18.07 2.51C18.02 2.35 18 2.18 18 2C18 0.9 18.9 0 20 0C21.1 0 22 0.9 22 2Z" fill="currentColor"/>
        <path d="M22 2C22 3.1 21.1 4 20 4C19.82 4 19.65 3.98 19.49 3.93L15.93 7.48C15.98 7.64 16 7.82 16 8C16 9.1 15.1 10 14 10C12.9 10 12 9.1 12 8C12 7.82 12.02 7.64 12.07 7.48L9.52 4.93C9.36 4.98 9.18 5 9 5C8.82 5 8.64 4.98 8.48 4.93L3.93 9.49C3.98 9.65 4 9.82 4 10C4 11.1 3.1 12 2 12C0.9 12 0 11.1 0 10C0 8.9 0.9 8 2 8C2.18 8 2.35 8.02 2.51 8.07L7.07 3.52C7.02 3.36 7 3.18 7 3C7 1.9 7.9 1 9 1C10.1 1 11 1.9 11 3C11 3.18 10.98 3.36 10.93 3.52L13.48 6.07C13.64 6.02 13.82 6 14 6C14.18 6 14.36 6.02 14.52 6.07L18.07 2.51C18.02 2.35 18 2.18 18 2C18 0.9 18.9 0 20 0C21.1 0 22 0.9 22 2Z" fill="currentColor"/>
    </symbol>

    <symbol xmlns="http://www.w3.org/2000/svg" viewBox="0 0 22 22" fill="currentColor" id="gather-pool">
        <path fill-rule="evenodd" clip-rule="evenodd" d="M13.2 2.2C13.2 3.41503 12.215 4.4 11 4.4C9.78497 4.4 8.8 3.41503 8.8 2.2C8.8 0.984974 9.78497 0 11 0C12.215 0 13.2 0.984974 13.2 2.2ZM13.1373 7.28062L17.9821 2.44949L19.5355 4.00731L14.6907 8.83844L13.1373 7.28062ZM4.4 11C4.4 12.215 3.41503 13.2 2.2 13.2C0.984974 13.2 0 12.215 0 11C0 9.78497 0.984974 8.8 2.2 8.8C3.41503 8.8 4.4 9.78497 4.4 11ZM22 11C22 12.215 21.015 13.2 19.8 13.2C18.585 13.2 17.6 12.215 17.6 11C17.6 9.78497 18.585 8.8 19.8 8.8C21.015 8.8 22 9.78497 22 11ZM11 22C12.215 22 13.2 21.015 13.2 19.8C13.2 18.585 12.215 17.6 11 17.6C9.78497 17.6 8.8 18.585 8.8 19.8C8.8 21.015 9.78497 22 11 22ZM7.29283 8.79966L6.95183 8.44766L6.94083 8.45866L2.51883 4.00366L4.08083 2.45266L4.42183 2.80466H4.43283L8.85483 7.24866L7.29283 8.79966ZM14.751 13.1338L13.2 14.6848L17.589 19.0958L17.974 19.4808L19.536 17.9298L15.147 13.5188L14.751 13.1338ZM2.81583 17.556L7.24883 13.145L8.81083 14.696L8.44783 15.048L4.01483 19.47L2.46383 17.919L2.81583 17.556ZM11 13.2C12.215 13.2 13.2 12.215 13.2 11C13.2 9.78497 12.215 8.8 11 8.8C9.78497 8.8 8.8 9.78497 8.8 11C8.8 12.215 9.78497 13.2 11 13.2Z" fill="currentColor"/>
        <path fill-rule="evenodd" clip-rule="evenodd" d="M13.2 2.2C13.2 3.41503 12.215 4.4 11 4.4C9.78497 4.4 8.8 3.41503 8.8 2.2C8.8 0.984974 9.78497 0 11 0C12.215 0 13.2 0.984974 13.2 2.2ZM13.1373 7.28062L17.9821 2.44949L19.5355 4.00731L14.6907 8.83844L13.1373 7.28062ZM4.4 11C4.4 12.215 3.41503 13.2 2.2 13.2C0.984974 13.2 0 12.215 0 11C0 9.78497 0.984974 8.8 2.2 8.8C3.41503 8.8 4.4 9.78497 4.4 11ZM22 11C22 12.215 21.015 13.2 19.8 13.2C18.585 13.2 17.6 12.215 17.6 11C17.6 9.78497 18.585 8.8 19.8 8.8C21.015 8.8 22 9.78497 22 11ZM11 22C12.215 22 13.2 21.015 13.2 19.8C13.2 18.585 12.215 17.6 11 17.6C9.78497 17.6 8.8 18.585 8.8 19.8C8.8 21.015 9.78497 22 11 22ZM7.29283 8.79966L6.95183 8.44766L6.94083 8.45866L2.51883 4.00366L4.08083 2.45266L4.42183 2.80466H4.43283L8.85483 7.24866L7.29283 8.79966ZM14.751 13.1338L13.2 14.6848L17.589 19.0958L17.974 19.4808L19.536 17.9298L15.147 13.5188L14.751 13.1338ZM2.81583 17.556L7.24883 13.145L8.81083 14.696L8.44783 15.048L4.01483 19.47L2.46383 17.919L2.81583 17.556ZM11 13.2C12.215 13.2 13.2 12.215 13.2 11C13.2 9.78497 12.215 8.8 11 8.8C9.78497 8.8 8.8 9.78497 8.8 11C8.8 12.215 9.78497 13.2 11 13.2Z" fill="currentColor"/>
    </symbol>

    <symbol xmlns="http://www.w3.org/2000/svg" viewBox="0 0 24 24" fill="currentColor" id="home">
        <path fill-rule="evenodd" clip-rule="evenodd" d="M3 2H10C10.5523 2 11 2.44772 11 3V10C11 10.5523 10.5523 11 10 11H3C2.44772 11 2 10.5523 2 10V3C2 2.44772 2.44772 2 3 2ZM14 2H21C21.5523 2 22 2.44772 22 3V10C22 10.5523 21.5523 11 21 11H14C13.4477 11 13 10.5523 13 10V3C13 2.44772 13.4477 2 14 2ZM21 13H14C13.4477 13 13 13.4477 13 14V21C13 21.5523 13.4477 22 14 22H21C21.5523 22 22 21.5523 22 21V14C22 13.4477 21.5523 13 21 13ZM3 13H10C10.5523 13 11 13.4477 11 14V21C11 21.5523 10.5523 22 10 22H3C2.44772 22 2 21.5523 2 21V14C2 13.4477 2.44772 13 3 13Z" fill="currentColor"/>
    </symbol>

    <symbol xmlns="http://www.w3.org/2000/svg" viewBox="0 0 24 22" fill="currentColor" id="scatter">
        <path fill-rule="evenodd" clip-rule="evenodd" d="M14.4814 2.75C14.4814 1.23122 15.7781 0 17.3777 0C18.9772 0 20.2739 1.23122 20.2739 2.75C20.2739 4.26878 18.9772 5.5 17.3777 5.5C17.1323 5.5 16.8942 5.47104 16.6667 5.41653L14.4486 8.53983C15.0689 9.19038 15.4468 10.0533 15.4468 11C15.4468 11.3153 15.4049 11.6213 15.326 11.9133L18.3536 13.5247C18.8647 13.0945 19.5372 12.8333 20.2739 12.8333C21.8735 12.8333 23.1702 14.0645 23.1702 15.5833C23.1702 17.1021 21.8735 18.3333 20.2739 18.3333C18.6744 18.3333 17.3777 17.1021 17.3777 15.5833C17.3777 15.4282 17.3912 15.2761 17.4172 15.128L14.3922 13.518C13.9954 13.9167 13.5054 14.2309 12.9554 14.4291L13.1214 15.7312C13.1613 16.0589 13.1939 16.3391 13.2194 16.5737C14.4965 16.8604 15.4468 17.9498 15.4468 19.25C15.4468 20.7688 14.1501 22 12.5505 22C10.951 22 9.65427 20.7688 9.65427 19.25C9.65427 18.1564 10.3265 17.212 11.3001 16.7688C11.2474 16.292 11.1594 15.5718 11.0381 14.6302C9.94606 14.4831 9.00103 13.9024 8.40257 13.0774L5.77067 14.3269C5.78512 14.4383 5.79255 14.5516 5.79255 14.6667C5.79255 16.1855 4.49585 17.4167 2.89628 17.4167C1.29671 17.4167 0 16.1855 0 14.6667C0 13.1479 1.29671 11.9167 2.89628 11.9167C3.67723 11.9167 4.38598 12.2101 4.90689 12.6873L7.73999 11.3423C7.729 11.2296 7.72339 11.1154 7.72339 11C7.72339 10.4002 7.87504 9.83411 8.14394 9.33431L5.28832 6.97715C4.86722 7.20388 4.38039 7.33333 3.86172 7.33333C2.26215 7.33333 0.965443 6.10212 0.965443 4.58333C0.965443 3.06455 2.26215 1.83333 3.86172 1.83333C5.46129 1.83333 6.758 3.06455 6.758 4.58333C6.758 4.94029 6.68637 5.28136 6.55602 5.59429L9.42342 7.96118C10.0403 7.56483 10.7842 7.33333 11.5851 7.33333C12.0232 7.33333 12.4442 7.4026 12.8368 7.53022L15.0601 4.39957C14.6967 3.94003 14.4814 3.36889 14.4814 2.75ZM18.3431 2.75C18.3431 2.24374 17.9108 1.83333 17.3776 1.83333C16.8445 1.83333 16.4122 2.24374 16.4122 2.75C16.4122 3.25626 16.8445 3.66667 17.3776 3.66667C17.9108 3.66667 18.3431 3.25626 18.3431 2.75ZM13.5159 11C13.5159 9.98748 12.6515 9.16667 11.5851 9.16667C10.5187 9.16667 9.65422 9.98748 9.65422 11C9.65422 12.0125 10.5187 12.8333 11.5851 12.8333C12.6515 12.8333 13.5159 12.0125 13.5159 11ZM3.8617 3.66667C4.39489 3.66667 4.82713 4.07707 4.82713 4.58333C4.82713 5.08959 4.39489 5.5 3.8617 5.5C3.32851 5.5 2.89628 5.08959 2.89628 4.58333C2.89628 4.07707 3.32851 3.66667 3.8617 3.66667ZM3.86169 14.6667C3.86169 14.1604 3.42945 13.75 2.89626 13.75C2.36307 13.75 1.93083 14.1604 1.93083 14.6667C1.93083 15.1729 2.36307 15.5833 2.89626 15.5833C3.42945 15.5833 3.86169 15.1729 3.86169 14.6667ZM20.2739 14.6667C20.8071 14.6667 21.2393 15.0771 21.2393 15.5833C21.2393 16.0896 20.8071 16.5 20.2739 16.5C19.7407 16.5 19.3085 16.0896 19.3085 15.5833C19.3085 15.0771 19.7407 14.6667 20.2739 14.6667ZM13.516 19.25C13.516 18.7437 13.0837 18.3333 12.5505 18.3333C12.0173 18.3333 11.5851 18.7437 11.5851 19.25C11.5851 19.7563 12.0173 20.1667 12.5505 20.1667C13.0837 20.1667 13.516 19.7563 13.516 19.25Z" fill="currentColor"/>
    </symbol>

    <symbol xmlns="http://www.w3.org/2000/svg" viewBox="0 0 8 5" fill="currentColor" id="caret-down">
        <path d="M0 0L4 5L8 0H0Z" fill="currentColor"/>
    </symbol>

    <symbol xmlns="http://www.w3.org/2000/svg" viewBox="0 0 8 12" fill="currentColor" id="caret-right">
        <path d="M1.99997 0L0.589966 1.41L5.16997 6L0.589966 10.59L1.99997 12L7.99997 6L1.99997 0Z" fill="currentColor"/>
    </symbol>

    <symbol xmlns="http://www.w3.org/2000/svg" viewBox="0 0 24 24" fill="currentColor" id="globe">
        <path fill-rule="evenodd" clip-rule="evenodd" d="M2 12.1252C2 6.55213 6.47 2.02905 11.99 2.02905C17.52 2.02905 22 6.55213 22 12.1252C22 17.6983 17.52 22.2214 11.99 22.2214C6.47 22.2214 2 17.6983 2 12.1252ZM15.97 8.08676H18.92C17.96 6.42089 16.43 5.12859 14.59 4.49253C15.19 5.6132 15.65 6.82474 15.97 8.08676ZM12 4.0887C12.83 5.30024 13.48 6.64302 13.91 8.08677H10.09C10.52 6.64302 11.17 5.30024 12 4.0887ZM4 12.1252C4 12.8219 4.1 13.4983 4.26 14.1445H7.64C7.56 13.4781 7.5 12.8118 7.5 12.1252C7.5 11.4387 7.56 10.7723 7.64 10.106H4.26C4.1 10.7522 4 11.4286 4 12.1252ZM5.07996 16.1637H8.02996C8.34996 17.4257 8.80996 18.6372 9.40996 19.7579C7.56996 19.1218 6.03996 17.8396 5.07996 16.1637ZM5.07996 8.08676H8.02996C8.34996 6.82474 8.80996 5.6132 9.40996 4.49253C7.56996 5.12859 6.03996 6.4108 5.07996 8.08676ZM12 20.1617C11.17 18.9502 10.52 17.6074 10.09 16.1637H13.91C13.48 17.6074 12.83 18.9502 12 20.1617ZM9.66 14.1445H14.34C14.43 13.4781 14.5 12.8118 14.5 12.1252C14.5 11.4387 14.43 10.7622 14.34 10.106H9.66C9.57 10.7622 9.5 11.4387 9.5 12.1252C9.5 12.8118 9.57 13.4781 9.66 14.1445ZM14.59 19.7579C15.19 18.6372 15.65 17.4257 15.97 16.1637H18.92C17.96 17.8295 16.43 19.1218 14.59 19.7579ZM16.5 12.1252C16.5 12.8118 16.44 13.4781 16.36 14.1445H19.74C19.9 13.4983 20 12.8219 20 12.1252C20 11.4286 19.9 10.7522 19.74 10.106H16.36C16.44 10.7723 16.5 11.4387 16.5 12.1252Z" fill="currentColor"/>
    </symbol>

    <symbol xmlns="http://www.w3.org/2000/svg" viewBox="0 0 16 21" fill="currentColor" id="paper">
        <path fill-rule="evenodd" clip-rule="evenodd" d="M2 0.00952148H10L16 6.06721V18.1826C16 19.2932 15.1 20.2018 14 20.2018H1.99C0.89 20.2018 0 19.2932 0 18.1826L0.01 2.02875C0.01 0.918175 0.9 0.00952148 2 0.00952148ZM4 16.1633H12V14.1441H4V16.1633ZM12 12.1249H4V10.1057H12V12.1249ZM9 1.52391V7.0768H14.5L9 1.52391Z" fill="currentColor"/>
    </symbol>

    <symbol xmlns="http://www.w3.org/2000/svg" viewBox="0 0 20 21" fill="currentColor" id="etherscan">
        <path fill-rule="evenodd" clip-rule="evenodd" d="M4.11194 8.91932C4.07021 9.01924 4.04874 9.12638 4.04876 9.23458H4.04909V14.369C4.04892 14.5372 3.9866 14.6994 3.87399 14.8248C3.76137 14.9502 3.60634 15.03 3.43841 15.049C3.0526 15.094 2.72806 15.1263 2.46738 15.1491C2.23406 15.1699 1.99963 15.124 1.79163 15.0168C1.58364 14.9096 1.41071 14.7455 1.29316 14.5439C0.440818 13.0701 -0.00525592 11.3984 4.67297e-05 9.69806C-0.00048378 4.32444 4.46276 -0.0615331 9.86328 0.0106439C11.866 0.0381009 13.8113 0.680327 15.4333 1.84951C17.0552 3.01869 18.2746 4.65776 18.9246 6.54259C18.9991 6.75809 19.0188 6.98858 18.9819 7.21349C18.9451 7.4384 18.8528 7.65073 18.7134 7.83155C17.7527 9.07723 16.542 10.1132 15.3474 10.9745V5.12749C15.3474 4.90934 15.2603 4.70013 15.1052 4.54588C14.9502 4.39163 14.7399 4.30498 14.5206 4.30498H13.1428C13.0342 4.30498 12.9267 4.32625 12.8264 4.36759C12.7261 4.40892 12.635 4.46951 12.5582 4.54589C12.4814 4.62227 12.4205 4.71294 12.379 4.81273C12.3375 4.91252 12.3161 5.01948 12.3161 5.12749V12.2282C12.316 12.363 12.276 12.4949 12.201 12.6072C12.1261 12.7196 12.0196 12.8075 11.8948 12.8601C11.5587 13.0012 11.2138 13.1401 11.2138 13.1401V7.18394C11.2138 6.9658 11.1267 6.75662 10.9716 6.60237C10.8166 6.44813 10.6063 6.36146 10.3871 6.36142H9.00922C8.90064 6.36143 8.79312 6.38272 8.6928 6.42407C8.59248 6.46542 8.50134 6.52602 8.42456 6.60242C8.34778 6.67881 8.28689 6.76951 8.24534 6.86932C8.2038 6.96913 8.18242 7.0761 8.18243 7.18413V13.6013C8.18238 13.7557 8.12991 13.9057 8.03351 14.0267C7.93711 14.1478 7.80244 14.2329 7.65132 14.2683C7.43368 14.3191 7.235 14.3678 7.08009 14.4134V9.24006C7.08009 9.02191 6.99299 8.8127 6.83795 8.65845C6.68291 8.5042 6.47262 8.41754 6.25336 8.41754L4.87821 8.41306C4.76946 8.41255 4.66168 8.43343 4.56106 8.47449C4.46044 8.51555 4.36896 8.57599 4.29189 8.65233C4.21481 8.72866 4.15366 8.8194 4.11194 8.91932ZM9.13163 20.1691C7.27892 20.0179 5.50289 19.3408 4 18.2129C9.49665 17.4064 16.2929 14.759 19.9737 9.0957C19.9892 9.33108 20 9.56774 20 9.80708C20.0003 11.7244 19.4865 13.6045 18.5154 15.2392C17.5442 16.874 16.1537 18.1997 14.4976 19.0698C12.8415 19.9399 10.9843 20.3203 9.13163 20.1691Z" fill="currentColor"/>
    </symbol>

    <symbol xmlns="http://www.w3.org/2000/svg" viewBox="0 0 6 6" fill="currentColor" id="middot">
        <circle cx="3" cy="3" r="3" fill="currentColor"/>
    </symbol>

    <symbol xmlns="http://www.w3.org/2000/svg" viewBox="0 0 14 14" fill="currentColor" id="medium">
        <path fill-rule="evenodd" clip-rule="evenodd" d="M1.66017 4.01742C1.67767 3.84533 1.61175 3.67558 1.48342 3.56008L0.17675 1.98508V1.75H4.23558L7.37275 8.63042L10.1307 1.75H14V1.98508L12.8823 3.05667C12.7861 3.13017 12.7383 3.25092 12.7581 3.3705V11.2443C12.7383 11.3633 12.7861 11.4841 12.8823 11.5576L13.9737 12.6292V12.8642H8.48342V12.6292L9.6145 11.5313C9.72533 11.4205 9.72533 11.3878 9.72533 11.2181V4.85392L6.58175 12.8386H6.15708L2.49667 4.85392V10.2054C2.46633 10.43 2.541 10.6569 2.69908 10.8191L4.16967 12.6029V12.8386H0V12.6029L1.47058 10.8191C1.62808 10.6563 1.69808 10.4282 1.66017 10.2054V4.01742Z" fill="currentColor"/>
    </symbol>

    <symbol xmlns="http://www.w3.org/2000/svg" viewBox="0 0 14 14" fill="currentColor" id="twitter">
        <path d="M14 2.65844C13.4849 2.88711 12.9313 3.04111 12.3503 3.11052C12.9436 2.75527 13.3992 2.19236 13.6132 1.52152C13.0585 1.85052 12.4437 2.08969 11.7892 2.21861C11.2659 1.66036 10.5187 1.31152 9.69267 1.31152C7.83825 1.31152 6.47558 3.04169 6.89442 4.83777C4.508 4.71819 2.39167 3.57486 0.97475 1.83711C0.22225 3.12802 0.5845 4.81677 1.86317 5.67194C1.393 5.65677 0.949667 5.52786 0.562917 5.31261C0.531417 6.64319 1.48517 7.88802 2.8665 8.16511C2.46225 8.27477 2.0195 8.30044 1.56917 8.21411C1.93433 9.35511 2.99483 10.1852 4.2525 10.2085C3.045 11.1553 1.52367 11.5782 0 11.3985C1.27108 12.2134 2.78133 12.6889 4.403 12.6889C9.73583 12.6889 12.7487 8.18494 12.5667 4.14536C13.1279 3.73994 13.615 3.23419 14 2.65844Z" fill="currentColor"/>
    </symbol>

    <symbol xmlns="http://www.w3.org/2000/svg" viewBox="0 0 14 14" fill="currentColor" id="telegram">
        <path fill-rule="evenodd" clip-rule="evenodd" d="M10.724 13.2878C10.9118 13.4208 11.1539 13.4541 11.3697 13.3724C11.5856 13.2902 11.7442 13.1058 11.7921 12.8824C12.299 10.5001 13.5287 4.47017 13.9901 2.30309C14.0251 2.13975 13.9667 1.97 13.8384 1.86092C13.7101 1.75184 13.5322 1.72034 13.3735 1.77925C10.9276 2.68459 3.39499 5.51084 0.316155 6.65009C0.120738 6.72242 -0.00642873 6.91025 -1.20593e-05 7.11617C0.00698794 7.32267 0.145821 7.50175 0.345905 7.56184C1.72665 7.97484 3.53907 8.54942 3.53907 8.54942C3.53907 8.54942 4.38607 11.1073 4.82765 12.4082C4.88307 12.5715 5.01082 12.6998 5.1794 12.7442C5.3474 12.7879 5.52707 12.7418 5.65249 12.6234C6.36182 11.9538 7.45849 10.9183 7.45849 10.9183C7.45849 10.9183 9.54216 12.4461 10.724 13.2878ZM4.30149 8.22625L5.2809 11.4568L5.49849 9.411C5.49849 9.411 9.28257 5.99792 11.4397 4.0525C11.5027 3.99534 11.5115 3.89967 11.459 3.83259C11.4071 3.7655 11.3114 3.74975 11.2397 3.79525C8.73949 5.39184 4.30149 8.22625 4.30149 8.22625Z" fill="currentColor"/>
    </symbol>

    <symbol xmlns="http://www.w3.org/2000/svg" viewBox="0 0 19 22" fill="currentColor" id="copy">
        <path fill-rule="evenodd" clip-rule="evenodd" d="M14 0H2C0.9 0 0 0.9 0 2V16H2V2H14V0ZM17 4H6C4.9 4 4 4.9 4 6V20C4 21.1 4.9 22 6 22H17C18.1 22 19 21.1 19 20V6C19 4.9 18.1 4 17 4ZM6 20H17V6H6V20Z" fill="currentColor"/>
    </symbol>

    <symbol xmlns="http://www.w3.org/2000/svg" viewBox="0 0 24 24" fill="currentColor" id="search">
        <path fill-rule="evenodd" clip-rule="evenodd" d="M11 2C6.02944 2 2 6.02944 2 11C2 15.9706 6.02944 20 11 20C13.125 20 15.078 19.2635 16.6177 18.0319L20.2929 21.7071L20.3871 21.7903C20.7794 22.0953 21.3466 22.0676 21.7071 21.7071C22.0976 21.3166 22.0976 20.6834 21.7071 20.2929L18.0319 16.6177C19.2635 15.078 20 13.125 20 11C20 6.02944 15.9706 2 11 2ZM16.0414 15.8564C17.2542 14.5977 18 12.8859 18 11C18 7.13401 14.866 4 11 4C7.13401 4 4 7.13401 4 11C4 14.866 7.13401 18 11 18C12.8859 18 14.5977 17.2542 15.8564 16.0414C15.8827 16.0072 15.9115 15.9742 15.9429 15.9429C15.9742 15.9115 16.0072 15.8827 16.0414 15.8564Z" fill="currentColor"/>
    </symbol>

    <symbol xmlns="http://www.w3.org/2000/svg" viewBox="0 0 16 16" fill="currentColor" id="arrow-right">
        <path fill-rule="evenodd" clip-rule="evenodd" d="M16 8C16 8.55228 15.5523 9 15 9L1 9C0.447715 9 -6.78525e-08 8.55228 -4.37114e-08 8C-1.95703e-08 7.44771 0.447715 7 1 7L15 7C15.5523 7 16 7.44772 16 8Z" fill="currentColor"/>
        <path fill-rule="evenodd" clip-rule="evenodd" d="M8.70711 0.292893C9.09763 0.683418 9.09763 1.31658 8.70711 1.70711L2.41421 8L8.70711 14.2929C9.09763 14.6834 9.09763 15.3166 8.70711 15.7071C8.31658 16.0976 7.68342 16.0976 7.29289 15.7071L0.292893 8.70711C-0.0976318 8.31658 -0.0976318 7.68342 0.292893 7.29289L7.29289 0.292893C7.68342 -0.0976312 8.31658 -0.0976311 8.70711 0.292893Z" fill="currentColor"/>
    </symbol>

    <symbol xmlns="http://www.w3.org/2000/svg" viewBox="0 0 16 16" fill="currentColor" id="arrow-down">
        <path fill-rule="evenodd" clip-rule="evenodd" d="M8 0C8.55228 0 9 0.447715 9 1V15C9 15.5523 8.55228 16 8 16C7.44772 16 7 15.5523 7 15V1C7 0.447715 7.44772 0 8 0Z" fill="currentColor"/>
        <path fill-rule="evenodd" clip-rule="evenodd" d="M0.292893 7.29289C0.683417 6.90237 1.31658 6.90237 1.70711 7.29289L8 13.5858L14.2929 7.29289C14.6834 6.90237 15.3166 6.90237 15.7071 7.29289C16.0976 7.68342 16.0976 8.31658 15.7071 8.70711L8.70711 15.7071C8.31658 16.0976 7.68342 16.0976 7.29289 15.7071L0.292893 8.70711C-0.0976311 8.31658 -0.0976311 7.68342 0.292893 7.29289Z" fill="currentColor"/>
    </symbol>

    <symbol xmlns="http://www.w3.org/2000/svg" viewBox="0 0 15 14" fill="currentColor" id="close">
        <path d="M14.5 1.41L13.09 0L7.5 5.59L1.91 0L0.5 1.41L6.09 7L0.5 12.59L1.91 14L7.5 8.41L13.09 14L14.5 12.59L8.91 7L14.5 1.41Z" fill="currentColor"/>
    </symbol>

    <symbol xmlns="http://www.w3.org/2000/svg" viewBox="0 0 18 13" fill="currentColor" id="check">
        <path fill-rule="evenodd" clip-rule="evenodd" d="M17.7071 0.292893C18.0976 0.683417 18.0976 1.31658 17.7071 1.70711L6.70711 12.7071C6.31658 13.0976 5.68342 13.0976 5.29289 12.7071L0.292893 7.70711C-0.0976311 7.31658 -0.0976311 6.68342 0.292893 6.29289C0.683417 5.90237 1.31658 5.90237 1.70711 6.29289L6 10.5858L16.2929 0.292893C16.6834 -0.0976311 17.3166 -0.0976311 17.7071 0.292893Z" fill="currentColor"/>
    </symbol>

    <symbol xmlns="http://www.w3.org/2000/svg" viewBox="0 0 11 14" fill="currentColor" id="lock">
        <path fill-rule="evenodd" clip-rule="evenodd" d="M8.66667 4.66667H9.33333C10.0667 4.66667 10.6667 5.26667 10.6667 6V12.6667C10.6667 13.4 10.0667 14 9.33333 14H1.33333C0.6 14 0 13.4 0 12.6667V6C0 5.26667 0.6 4.66667 1.33333 4.66667H2V3.33333C2 1.49333 3.49333 0 5.33333 0C7.17333 0 8.66667 1.49333 8.66667 3.33333V4.66667ZM5.33333 1.33333C4.22667 1.33333 3.33333 2.22667 3.33333 3.33333V4.66667H7.33333V3.33333C7.33333 2.22667 6.44 1.33333 5.33333 1.33333ZM1.33333 12.6667V6H9.33333V12.6667H1.33333ZM6.66667 9.33333C6.66667 10.0667 6.06667 10.6667 5.33333 10.6667C4.6 10.6667 4 10.0667 4 9.33333C4 8.6 4.6 8 5.33333 8C6.06667 8 6.66667 8.6 6.66667 9.33333Z" fill="currentColor"/>
    </symbol>

    <symbol xmlns="http://www.w3.org/2000/svg" viewBox="0 0 24 24" fill="currentColor" id="binance">
        <path fill-rule="evenodd" clip-rule="evenodd" d="M7.35002 10.0621L11.9987 5.41203L16.6499 10.0645L19.3548 7.35868L11.9987 0L4.64516 7.35628L7.35002 10.0621ZM0 12.0001L2.70977 9.29032L5.41935 11.9999L2.70961 14.7097L0 12.0001ZM12.0001 18.5879L7.35309 13.9378L4.64516 16.64L4.64899 16.6439L12.0001 24L19.3535 16.6414L19.3548 16.6399L16.6494 13.9355L12.0001 18.5879ZM18.5806 12.0001L21.2904 9.29032L24 11.9999L21.2902 14.7097L18.5806 12.0001ZM14.7084 11.9986H14.7072L14.7097 11.9999L14.7084 12.0014L12 14.7097L9.2941 12.0038L9.29032 11.9999L9.2941 11.9962L9.76839 11.5218L9.99833 11.2918H9.99845L12 9.29032L14.7084 11.9986Z" fill="#2042A8"/>
    </symbol>
    <symbol xmlns="http://www.w3.org/2000/svg" width="15" height="14" viewBox="0 0 15 14" fill="none" id="white-plus">
        <path d="M14.7913 8H8.54134V14H6.45801V8H0.208008V6H6.45801V0H8.54134V6H14.7913V8Z" fill="white"/>
    </symbol>

    <symbol xmlns="http://www.w3.org/2000/svg" width="19" height="22" viewBox="0 0 19 22" fill="none" id="copy">
        <path fill-rule="evenodd" clip-rule="evenodd" d="M14 0H2C0.9 0 0 0.9 0 2V16H2V2H14V0ZM17 4H6C4.9 4 4 4.9 4 6V20C4 21.1 4.9 22 6 22H17C18.1 22 19 21.1 19 20V6C19 4.9 18.1 4 17 4ZM6 20H17V6H6V20Z" fill="#7F64DB"/>
    </symbol>

    <linearGradient id="gradient1" x2="1" y2="1">
        <stop offset="0%" stop-color="#447799"/>
        <stop offset="50%" stop-color="#224488"/>
        <stop offset="100%" stop-color="#112266"/>
    </linearGradient>
</svg>